<svg width="100" height="24" viewBox="0 0 100 24" fill="none" xmlns="http://www.w3.org/2000/svg">
    <path d="M12.8789 0C19.5063 0 24.8789 5.37258 24.8789 12C24.8789 18.6274 19.5063 24 12.8789 24C6.25149 24 0.878906 18.6274 0.878906 12C0.878906 5.37258 6.25149 0 12.8789 0ZM12.8789 6C9.5652 6 6.87891 8.68629 6.87891 12C6.87891 15.3137 9.5652 18 12.8789 18C16.1926 18 18.8789 15.3137 18.8789 12C18.8789 8.68629 16.1926 6 12.8789 6Z"
          fill="#1677FF"/>
    <g clip-path="url(#clip0_2388_569)">
        <path d="M38.5068 17.3701C35.6494 17.3701 33.8789 15.3877 33.8789 12.1885V12.1748C33.8789 8.97559 35.6426 7 38.5068 7C40.8447 7 42.5947 8.49023 42.7861 10.5752V10.6572H40.7764V10.6094C40.5645 9.50195 39.6826 8.75 38.5068 8.75C36.9551 8.75 35.9912 10.0557 35.9912 12.1748V12.1885C35.9912 14.3076 36.9551 15.6201 38.5137 15.6201C39.6963 15.6201 40.5508 14.9297 40.7695 13.877L40.7832 13.8223H42.793L42.7861 13.8975C42.5742 15.9619 40.8857 17.3701 38.5068 17.3701Z"
              fill="currentColor" fill-opacity="0.88"/>
        <path d="M47.8379 17.2744C45.5205 17.2744 44.126 15.8047 44.126 13.3574V13.3438C44.126 10.917 45.541 9.42676 47.8379 9.42676C50.1348 9.42676 51.5498 10.9102 51.5498 13.3438V13.3574C51.5498 15.8115 50.1553 17.2744 47.8379 17.2744ZM47.8379 15.709C48.8975 15.709 49.5059 14.8408 49.5059 13.3574V13.3438C49.5059 11.874 48.8906 10.9922 47.8379 10.9922C46.7783 10.9922 46.1699 11.874 46.1699 13.3438V13.3574C46.1699 14.8408 46.7715 15.709 47.8379 15.709Z"
              fill="currentColor" fill-opacity="0.88"/>
        <path d="M53.1768 17.1172V9.59082H55.1729V10.7666H55.2959C55.6172 9.91895 56.3965 9.42676 57.3809 9.42676C58.4062 9.42676 59.165 9.94629 59.4727 10.8145H59.5957C59.9375 9.98047 60.8125 9.42676 61.8652 9.42676C63.3623 9.42676 64.2988 10.3975 64.2988 11.9492V17.1172H62.3027V12.4482C62.3027 11.5391 61.8926 11.0811 61.0586 11.0811C60.252 11.0811 59.7324 11.6758 59.7324 12.4893V17.1172H57.7363V12.3594C57.7363 11.5527 57.2783 11.0811 56.499 11.0811C55.7197 11.0811 55.1729 11.7168 55.1729 12.5781V17.1172H53.1768Z"
              fill="currentColor" fill-opacity="0.88"/>
        <path d="M66.2334 19.6123V9.59082H68.2295V10.7529H68.3525C68.7422 9.94629 69.542 9.46777 70.6084 9.46777C72.4883 9.46777 73.6641 10.9443 73.6641 13.3438V13.3574C73.6641 15.7773 72.5156 17.2334 70.6084 17.2334C69.5762 17.2334 68.7354 16.7344 68.3525 15.9141H68.2295V19.6123H66.2334ZM69.9248 15.5791C70.9775 15.5791 71.6338 14.7383 71.6338 13.3574V13.3438C71.6338 11.9629 70.9844 11.1221 69.9248 11.1221C68.8721 11.1221 68.209 11.9629 68.209 13.3438V13.3574C68.209 14.7383 68.8789 15.5791 69.9248 15.5791Z"
              fill="currentColor" fill-opacity="0.88"/>
        <path d="M77.3486 17.2334C75.9131 17.2334 74.8945 16.3447 74.8945 14.9775V14.9639C74.8945 13.6104 75.9404 12.8174 77.8135 12.708L79.6318 12.5986V11.9766C79.6318 11.3271 79.1875 10.958 78.3672 10.958C77.6494 10.958 77.1914 11.2109 77.0342 11.6553L77.0205 11.6826H75.1748L75.1816 11.6211C75.3389 10.3018 76.583 9.42676 78.4766 9.42676C80.4727 9.42676 81.6006 10.3701 81.6006 11.9766V17.1172H79.6318V16.1191H79.5088C79.126 16.8164 78.333 17.2334 77.3486 17.2334ZM76.8428 14.8545C76.8428 15.4287 77.3281 15.7773 78.0186 15.7773C78.9414 15.7773 79.6318 15.1689 79.6318 14.376V13.8223L78.1143 13.918C77.2598 13.9727 76.8428 14.2939 76.8428 14.8408V14.8545Z"
              fill="currentColor" fill-opacity="0.88"/>
        <path d="M83.5557 17.1172V9.59082H85.5518V10.7529H85.6748C86.0166 9.93945 86.7617 9.42676 87.835 9.42676C89.5098 9.42676 90.4121 10.4521 90.4121 12.25V17.1172H88.416V12.7012C88.416 11.6416 87.9785 11.0811 87.0352 11.0811C86.1123 11.0811 85.5518 11.7441 85.5518 12.7627V17.1172H83.5557Z"
              fill="currentColor" fill-opacity="0.88"/>
        <path d="M93.0371 19.7695C92.8047 19.7695 92.5518 19.7627 92.3193 19.749V18.2451C92.4561 18.2588 92.6543 18.2656 92.8389 18.2656C93.5498 18.2656 93.96 17.9922 94.1035 17.4043L94.1719 17.1172L91.5264 9.59082H93.7207L95.2998 15.292H95.4365L97.0156 9.59082H99.1211L96.5576 17.1104C95.8877 19.0996 94.8965 19.7695 93.0371 19.7695Z"
              fill="currentColor" fill-opacity="0.88"/>
    </g>
    <defs>
        <clipPath id="clip0_2388_569">
            <rect width="65.2422" height="24" fill="white" transform="translate(33.8789)"/>
        </clipPath>
    </defs>
</svg>
 